<svg xmlns="http://www.w3.org/2000/svg" fill="#f6f8ff" class="bi bi-clipboard-data" viewBox="0 0 16 16" id="Clipboard-Data--Streamline-Bootstrap" height="16" width="16">
  <desc>
    Clipboard Data Streamline Icon: https://streamlinehq.com
  </desc>
  <path d="M4 11a1 1 0 1 1 2 0v1a1 1 0 1 1 -2 0zm6 -4a1 1 0 1 1 2 0v5a1 1 0 1 1 -2 0zM7 9a1 1 0 0 1 2 0v3a1 1 0 1 1 -2 0z" stroke-width="1"></path>
  <path d="M4 1.5H3a2 2 0 0 0 -2 2V14a2 2 0 0 0 2 2h10a2 2 0 0 0 2 -2V3.5a2 2 0 0 0 -2 -2h-1v1h1a1 1 0 0 1 1 1V14a1 1 0 0 1 -1 1H3a1 1 0 0 1 -1 -1V3.5a1 1 0 0 1 1 -1h1z" stroke-width="1"></path>
  <path d="M9.5 1a0.5 0.5 0 0 1 0.5 0.5v1a0.5 0.5 0 0 1 -0.5 0.5h-3a0.5 0.5 0 0 1 -0.5 -0.5v-1a0.5 0.5 0 0 1 0.5 -0.5zm-3 -1A1.5 1.5 0 0 0 5 1.5v1A1.5 1.5 0 0 0 6.5 4h3A1.5 1.5 0 0 0 11 2.5v-1A1.5 1.5 0 0 0 9.5 0z" stroke-width="1"></path>
</svg>