<svg xmlns="http://www.w3.org/2000/svg" viewBox="0 0 14 14" id="Calendar-3--Streamline-Ultimate" height="14" width="14">
  <desc>
    Calendar 3 Streamline Icon: https://streamlinehq.com
  </desc>
  <g id="Calendar-3--Streamline-Ultimate.svg">
    <path d="M4.375 6.125h-0.5833333333333334a0.5833333333333334 0.5833333333333334 0 0 0 0 1.1666666666666667h0.5833333333333334a0.5833333333333334 0.5833333333333334 0 0 0 0 -1.1666666666666667Z" fill="#f6f8ff" stroke-width="0.5833"></path>
    <path d="M7.291666666666667 6.125h-0.5833333333333334a0.5833333333333334 0.5833333333333334 0 0 0 0 1.1666666666666667h0.5833333333333334a0.5833333333333334 0.5833333333333334 0 0 0 0 -1.1666666666666667Z" fill="#f6f8ff" stroke-width="0.5833"></path>
    <path d="M10.208333333333334 6.125h-0.5833333333333334a0.5833333333333334 0.5833333333333334 0 0 0 0 1.1666666666666667h0.5833333333333334a0.5833333333333334 0.5833333333333334 0 0 0 0 -1.1666666666666667Z" fill="#f6f8ff" stroke-width="0.5833"></path>
    <path d="M4.375 8.458333333333334h-0.5833333333333334a0.5833333333333334 0.5833333333333334 0 0 0 0 1.1666666666666667h0.5833333333333334a0.5833333333333334 0.5833333333333334 0 0 0 0 -1.1666666666666667Z" fill="#f6f8ff" stroke-width="0.5833"></path>
    <path d="M7.291666666666667 8.458333333333334h-0.5833333333333334a0.5833333333333334 0.5833333333333334 0 0 0 0 1.1666666666666667h0.5833333333333334a0.5833333333333334 0.5833333333333334 0 0 0 0 -1.1666666666666667Z" fill="#f6f8ff" stroke-width="0.5833"></path>
    <path d="M10.208333333333334 8.458333333333334h-0.5833333333333334a0.5833333333333334 0.5833333333333334 0 0 0 0 1.1666666666666667h0.5833333333333334a0.5833333333333334 0.5833333333333334 0 0 0 0 -1.1666666666666667Z" fill="#f6f8ff" stroke-width="0.5833"></path>
    <path d="M4.375 10.791666666666668h-0.5833333333333334a0.5833333333333334 0.5833333333333334 0 0 0 0 1.1666666666666667h0.5833333333333334a0.5833333333333334 0.5833333333333334 0 0 0 0 -1.1666666666666667Z" fill="#f6f8ff" stroke-width="0.5833"></path>
    <path d="M7.291666666666667 10.791666666666668h-0.5833333333333334a0.5833333333333334 0.5833333333333334 0 0 0 0 1.1666666666666667h0.5833333333333334a0.5833333333333334 0.5833333333333334 0 0 0 0 -1.1666666666666667Z" fill="#f6f8ff" stroke-width="0.5833"></path>
    <path d="M10.208333333333334 10.791666666666668h-0.5833333333333334a0.5833333333333334 0.5833333333333334 0 0 0 0 1.1666666666666667h0.5833333333333334a0.5833333333333334 0.5833333333333334 0 0 0 0 -1.1666666666666667Z" fill="#f6f8ff" stroke-width="0.5833"></path>
    <path d="M12.541666666666668 1.75h-1.6041666666666667a0.14583333333333334 0.14583333333333334 0 0 1 -0.14583333333333334 -0.14583333333333334V0.5833333333333334a0.5833333333333334 0.5833333333333334 0 0 0 -1.1666666666666667 0v2.7708333333333335a0.4375 0.4375 0 0 1 -0.875 0V2.041666666666667a0.2916666666666667 0.2916666666666667 0 0 0 -0.2916666666666667 -0.2916666666666667H4.8125A0.14583333333333334 0.14583333333333334 0 0 1 4.666666666666667 1.6041666666666667V0.5833333333333334a0.5833333333333334 0.5833333333333334 0 0 0 -1.1666666666666667 0v2.7708333333333335a0.4375 0.4375 0 0 1 -0.875 0V2.041666666666667A0.2916666666666667 0.2916666666666667 0 0 0 2.3333333333333335 1.75H1.4583333333333335a1.1666666666666667 1.1666666666666667 0 0 0 -1.1666666666666667 1.1666666666666667v9.916666666666668a1.1666666666666667 1.1666666666666667 0 0 0 1.1666666666666667 1.1666666666666667h11.083333333333334a1.1666666666666667 1.1666666666666667 0 0 0 1.1666666666666667 -1.1666666666666667V2.916666666666667a1.1666666666666667 1.1666666666666667 0 0 0 -1.1666666666666667 -1.1666666666666667Zm0 10.791666666666668a0.2916666666666667 0.2916666666666667 0 0 1 -0.2916666666666667 0.2916666666666667H1.75a0.2916666666666667 0.2916666666666667 0 0 1 -0.2916666666666667 -0.2916666666666667v-7A0.2916666666666667 0.2916666666666667 0 0 1 1.75 5.25h10.5a0.2916666666666667 0.2916666666666667 0 0 1 0.2916666666666667 0.2916666666666667Z" fill="#f6f8ff" stroke-width="0.5833"></path>
  </g>
</svg>