<svg xmlns="http://www.w3.org/2000/svg" fill="none" viewBox="0 0 14 14" id="Edit--Streamline-Rounded-Material" height="14" width="14">
  <desc>
    Edit Streamline Icon: https://streamlinehq.com
  </desc>
  <path fill="#000000" d="M2.625 11.375233333333334h0.6416666666666667l6.883333333333334 -6.86875 -0.6416666666666667 -0.6416666666666667L2.625 10.733566666666668v0.6416666666666667Zm-0.4375 0.875c-0.12638791666666668 0 -0.23090375000000002 -0.04132916666666667 -0.31354166666666666 -0.12395833333333334 -0.08263791666666669 -0.08265833333333333 -0.12395833333333334 -0.18716250000000004 -0.12395833333333334 -0.31354166666666666v-1.0645833333333334c0 -0.11666666666666668 0.024304583333333334 -0.2309125 0.07291666666666667 -0.3427083333333334 0.04861208333333334 -0.11182500000000001 0.11180458333333335 -0.2066166666666667 0.18958333333333335 -0.284375L10.135416666666668 2.0127275c0.07778750000000001 -0.07777875000000001 0.1701291666666667 -0.13854166666666667 0.27708333333333335 -0.18229166666666669 0.10695416666666668 -0.043750000000000004 0.21875 -0.065625 0.33541666666666664 -0.065625 0.10695416666666668 0 0.21387916666666668 0.021875000000000002 0.32083333333333336 0.065625 0.10695416666666668 0.043750000000000004 0.20416666666666666 0.10451291666666666 0.2916666666666667 0.18229166666666669l0.6416666666666667 0.6416666666666667c0.08750000000000001 0.08750000000000001 0.1507041666666667 0.18472125 0.18958333333333335 0.2916725 0.03887916666666667 0.106925 0.05833333333333334 0.21387916666666668 0.05833333333333334 0.32083333333333336 0 0.106925 -0.021875000000000002 0.21630000000000002 -0.065625 0.328125 -0.043750000000000004 0.11179583333333333 -0.10450416666666668 0.20658750000000003 -0.18229166666666669 0.284375l-8.122916666666667 8.108333333333334c-0.07778750000000001 0.07775833333333335 -0.17257916666666667 0.14096250000000002 -0.284375 0.18958333333333335 -0.11179583333333333 0.04859166666666667 -0.2260416666666667 0.07291666666666667 -0.3427083333333334 0.07291666666666667H2.1875Zm7.641666666666667 -8.064583333333333 -0.32083333333333336 -0.32083333333333336 0.6416666666666667 0.6416666666666667 -0.32083333333333336 -0.32083333333333336Z" stroke-width="0.2917"></path>
</svg>