<svg xmlns="http://www.w3.org/2000/svg" fill="none" viewBox="0 0 14 14" id="Hourglass-Empty-Fill--Streamline-Rounded-Fill-Material" height="14" width="14">
  <desc>
    Hourglass Empty Fill Streamline Icon: https://streamlinehq.com
  </desc>
  <path fill="#000000" d="M4.491666666666667 11.958333333333334h5.016666666666667v-1.8520833333333333c0 -0.7000000000000001 -0.24304583333333335 -1.2906250000000001 -0.7291666666666667 -1.771875 -0.4861208333333334 -0.48125 -1.0791666666666668 -0.721875 -1.7791666666666668 -0.721875 -0.7000000000000001 0 -1.2930458333333334 0.240625 -1.7791666666666668 0.721875 -0.4861208333333334 0.48125 -0.7291666666666667 1.071875 -0.7291666666666667 1.771875V11.958333333333334ZM7 6.3875c0.7000000000000001 0 1.2930458333333334 -0.24304583333333335 1.7791666666666668 -0.7291666666666667 0.4861208333333334 -0.4861208333333334 0.7291666666666667 -1.0791666666666668 0.7291666666666667 -1.7791666666666668V2.041666666666667H4.491666666666667v1.8375000000000001c0 0.7000000000000001 0.24304583333333335 1.2930458333333334 0.7291666666666667 1.7791666666666668 0.4861208333333334 0.4861208333333334 1.0791666666666668 0.7291666666666667 1.7791666666666668 0.7291666666666667ZM2.7708333333333335 12.833333333333334c-0.12395833333333334 0 -0.22784125000000002 -0.04220416666666667 -0.31164583333333334 -0.12658333333333335C2.37528375 12.622458333333334 2.3333333333333335 12.517954166666668 2.3333333333333335 12.393208333333334c0 -0.12462916666666668 0.04195041666666667 -0.2282875 0.12585416666666668 -0.31091666666666673C2.5429920833333335 11.999662500000001 2.646875 11.958333333333334 2.7708333333333335 11.958333333333334h0.8458333333333333v-1.8520833333333333c0 -0.6902874999999999 0.19445416666666668 -1.3173708333333334 0.5833333333333334 -1.88125s0.9041666666666668 -0.9722125 1.5458333333333334 -1.225c-0.6416666666666667 -0.2625 -1.1569541666666667 -0.6757041666666667 -1.5458333333333334 -1.2395833333333335s-0.5833333333333334 -1.1909625000000001 -0.5833333333333334 -1.88125V2.041666666666667H2.7708333333333335c-0.12395833333333334 0 -0.22784125000000002 -0.042195416666666666 -0.31164583333333334 -0.12658333333333335C2.37528375 1.8307916666666668 2.3333333333333335 1.72627875 2.3333333333333335 1.6015416666666666c0 -0.12463791666666667 0.04195041666666667 -0.22827875 0.12585416666666668 -0.31091666666666673C2.5429920833333335 1.2079870833333335 2.646875 1.1666666666666667 2.7708333333333335 1.1666666666666667h8.458333333333334c0.12395833333333334 0 0.2278791666666667 0.042195416666666666 0.3117916666666667 0.12658333333333335 0.08379583333333333 0.08429166666666667 0.12570833333333334 0.18880458333333333 0.12570833333333334 0.31354166666666666 0 0.12463791666666667 -0.0419125 0.22827875 -0.12570833333333334 0.31091666666666673 -0.08391250000000001 0.08263791666666669 -0.18783333333333335 0.12395833333333334 -0.3117916666666667 0.12395833333333334h-0.8458333333333333v1.8375000000000001c0 0.6902874999999999 -0.19445416666666668 1.3173708333333334 -0.5833333333333334 1.88125S8.895833333333334 6.737500000000001 8.254166666666668 7c0.6416666666666667 0.2527875 1.1569541666666667 0.6611208333333334 1.5458333333333334 1.225s0.5833333333333334 1.1909625000000001 0.5833333333333334 1.88125V11.958333333333334h0.8458333333333333c0.12395833333333334 0 0.2278791666666667 0.04220416666666667 0.3117916666666667 0.12658333333333335 0.08379583333333333 0.08429166666666667 0.12570833333333334 0.18879583333333333 0.12570833333333334 0.31354166666666666 0 0.12462916666666668 -0.0419125 0.2282875 -0.12570833333333334 0.31091666666666673 -0.08391250000000001 0.08262916666666667 -0.18783333333333335 0.12395833333333334 -0.3117916666666667 0.12395833333333334h-8.458333333333334Z" stroke-width="0.2917"></path>
</svg>