<svg xmlns="http://www.w3.org/2000/svg" fill="#2b303a" class="bi bi-journal-bookmark-fill" viewBox="0 0 20 20" id="Journal-Bookmark-Fill--Streamline-Bootstrap" height="20" width="20">
  <desc>
    Journal Bookmark Fill Streamline Icon: https://streamlinehq.com
  </desc>
  <path fill-rule="evenodd" d="M7.5 1.25h7.5v8.75a0.625 0.625 0 0 1 -0.94625 0.53625L11.25 8.85375 8.44625 10.5375A0.625 0.625 0 0 1 7.5 10z" stroke-width="1.25"></path>
  <path d="M3.75 0h12.5a2.5 2.5 0 0 1 2.5 2.5v15a2.5 2.5 0 0 1 -2.5 2.5H3.75a2.5 2.5 0 0 1 -2.5 -2.5v-1.25h1.25v1.25a1.25 1.25 0 0 0 1.25 1.25h12.5a1.25 1.25 0 0 0 1.25 -1.25V2.5a1.25 1.25 0 0 0 -1.25 -1.25H3.75a1.25 1.25 0 0 0 -1.25 1.25v1.25H1.25V2.5a2.5 2.5 0 0 1 2.5 -2.5" stroke-width="1.25"></path>
  <path d="M1.25 6.25v-0.625a0.625 0.625 0 0 1 1.25 0V6.25h0.625a0.625 0.625 0 0 1 0 1.25h-2.5a0.625 0.625 0 0 1 0 -1.25zm0 3.75v-0.625a0.625 0.625 0 0 1 1.25 0V10h0.625a0.625 0.625 0 0 1 0 1.25h-2.5a0.625 0.625 0 0 1 0 -1.25zm0 3.75v-0.625a0.625 0.625 0 0 1 1.25 0v0.625h0.625a0.625 0.625 0 0 1 0 1.25h-2.5a0.625 0.625 0 0 1 0 -1.25z" stroke-width="1.25"></path>
</svg>