<svg xmlns="http://www.w3.org/2000/svg" viewBox="0 0 14 14" id="Inbox--Streamline-Font-Awesome" height="14" width="14">
  <desc>
    Inbox Streamline Icon: https://streamlinehq.com
  </desc>
<!--! Font Awesome Free 6.5.2 by @fontawesome - https://fontawesome.com License - https://fontawesome.com/license/free (Icons: CC BY 4.0, Fonts: SIL OFL 1.1, Code: MIT License) Copyright 2024 Fonticons, Inc.-->
  <path d="M3.30859375 0.875c-0.8039062499999999 0 -1.50390625 0.546875 -1.698046875 1.326171875l-1.55859375 6.231640625C0.01640625 8.572265625 0 8.714453125 0 8.856640624999999V11.375c0 0.9652343749999999 0.784765625 1.75 1.75 1.75h10.5c0.9652343749999999 0 1.75 -0.784765625 1.75 -1.75v-2.5183593749999997c0 -0.1421875 -0.01640625 -0.284375 -0.051953124999999996 -0.423828125l-1.55859375 -6.231640625C12.1953125 1.421875 11.495312499999999 0.875 10.69140625 0.875H3.30859375zm0 1.75h7.3828125l1.3125 5.25h-1.4000000000000001c-0.330859375 0 -0.634375 0.1859375 -0.7820312500000001 0.48398437499999997l-0.39101562500000003 0.7820312500000001c-0.14765625000000002 0.29531250000000003 -0.451171875 0.48398437499999997 -0.7820312500000001 0.48398437499999997H5.3539062500000005c-0.330859375 0 -0.634375 -0.1859375 -0.7820312500000001 -0.48398437499999997l-0.39101562500000003 -0.7820312500000001c-0.14765625000000002 -0.29531250000000003 -0.451171875 -0.48398437499999997 -0.7820312500000001 -0.48398437499999997H1.99609375l1.3125 -5.25z" fill="#2b303a" stroke-width="0.0273"></path>
</svg>