<svg viewBox="-0.44 -0.44 14 14" fill="none" xmlns="http://www.w3.org/2000/svg" id="Settings--Streamline-Iconoir" height="14" width="14">
  <desc>
    Settings Streamline Icon: https://streamlinehq.com
  </desc>
  <path d="M6.5600000000000005 8.354105333333335c0.9908880000000001 0 1.7941053333333334 -0.8032173333333334 1.7941053333333334 -1.7941053333333334S7.550888000000001 4.765894666666667 6.5600000000000005 4.765894666666667 4.765894666666667 5.5691120000000005 4.765894666666667 6.5600000000000005 5.5691120000000005 8.354105333333335 6.5600000000000005 8.354105333333335Z" stroke="#f6f8ff" stroke-linecap="round" stroke-linejoin="round" stroke-width="0.88"></path>
  <path d="M11.118380000000002 5.600381333333334 10.461942666666667 4.015266666666667l0.8822653333333333 -1.0434226666666668 -1.1960520000000001 -1.1960520000000001 -1.0377373333333335 0.8868026666666669 -1.6187893333333334 -0.6657306666666668 -0.37228000000000006 -1.417124h-1.168718666666667l-0.37791066666666673 1.4359293333333336 -1.5816160000000004 0.6667146666666668 -1.0192600000000003 -0.9065920000000002 -1.1960520000000001 1.1960520000000001 0.8691453333333335 1.0697720000000002 -0.6463786666666667 1.5892146666666669 -1.418818666666667 0.3311160000000001v1.1961066666666669l1.4359293333333336 0.39196000000000003 0.6665506666666667 1.581342666666667 -0.9064280000000001 1.0168000000000001 1.1960520000000001 1.1960520000000001 1.071138666666667 -0.8729173333333334 1.5583826666666667 0.6410760000000001 0.36058133333333336 1.4278933333333337h1.1961066666666669l0.36145600000000006 -1.427346666666667 1.5851693333333337 -0.6564373333333334c0.26420400000000005 0.1888186666666667 1.0434773333333336 0.8877320000000001 1.0434773333333336 0.8877320000000001l1.1960520000000001 -1.1960520000000001 -0.8875133333333334 -1.0469213333333336 0.6566013333333335 -1.5856066666666668 1.4269093333333334 -0.3712413333333334 0.00005466666666666668 -1.1824400000000002 -1.4218253333333337 -0.3615653333333334Z" stroke="#f6f8ff" stroke-linecap="round" stroke-linejoin="round" stroke-width="0.88"></path>
</svg>